<?xml version="1.0" standalone="no"?>
<!DOCTYPE svg PUBLIC "-//W3C//DTD SVG 20010904//EN"
 "http://www.w3.org/TR/2001/REC-SVG-20010904/DTD/svg10.dtd">
<svg version="1.0" xmlns="http://www.w3.org/2000/svg"
 width="48.000000pt" height="48.000000pt" viewBox="0 0 48.000000 48.000000"
 preserveAspectRatio="xMidYMid meet">

<g transform="translate(0.000000,48.000000) scale(0.100000,-0.100000)"
fill="#000000" stroke="none">
<path d="M188 460 c-32 -25 -64 -140 -48 -170 9 -17 6 -22 -27 -35 -55 -23
-71 -42 -84 -101 -10 -46 -10 -56 4 -78 9 -13 25 -27 36 -31 10 -3 21 -15 24
-25 5 -19 14 -20 147 -20 133 0 142 1 147 20 3 10 14 22 24 25 11 4 27 18 36
31 14 22 14 32 4 79 -13 59 -43 92 -93 102 -31 6 -32 7 -18 33 7 14 6 38 -6
85 -18 72 -47 105 -94 105 -15 0 -39 -9 -52 -20z m90 -76 c45 -13 14 -105 -37
-109 -46 -3 -86 97 -43 108 26 7 55 7 80 1z m92 -274 l0 -90 -132 2 -133 2
128 3 c167 5 169 23 2 23 l-125 0 0 75 0 75 130 0 130 0 0 -90z"/>
<path d="M208 353 c7 -3 16 -2 19 1 4 3 -2 6 -13 5 -11 0 -14 -3 -6 -6z"/>
<path d="M258 353 c7 -3 16 -2 19 1 4 3 -2 6 -13 5 -11 0 -14 -3 -6 -6z"/>
<path d="M215 310 c3 -5 15 -10 25 -10 10 0 22 5 25 10 4 6 -7 10 -25 10 -18
0 -29 -4 -25 -10z"/>
</g>
</svg>
